# xmcd
#
# Track frame offsets:
#	150
#	16337
#	35298
#	54205
#	69140
#	90171
#	115336
#	131346
#	146181
#	162816
#	181692
#	197156
#	216771
#	230607
#
# Disc length: 3209 seconds
#
# Revision: 1
# Processed by: cddbd v1.5.2PL0 Copyright (c) Steve Scherf et al.
# Submitted via: audiograbber 1.83.01
#
DISCID=af0c870e
DTITLE=Dolly Parton - Backwoods Barbie
DYEAR=2008
DGENRE=General Country Pop
TTITLE0=Better Get To Livin'
TTITLE1=Made Of Stone
TTITLE2=Drives Me Crazy
TTITLE3=Backwoods Barbie
TTITLE4=Jesus and Gravity
TTITLE5=Only Dreamin'
TTITLE6=The Tracks Of My Tears
TTITLE7=The Lonesomes
TTITLE8=Cologne
TTITLE9=Shinola
TTITLE10=I Will Forever Hate Roses
TTITLE11=Somebody's Everything
TTITLE12=Jolene [Live]
TTITLE13=Two Doors Down [Live]
EXTD=
EXTT0=
EXTT1=
EXTT2=
EXTT3=
EXTT4=
EXTT5=
EXTT6=
EXTT7=
EXTT8=
EXTT9=
EXTT10=
EXTT11=
EXTT12=
EXTT13=
PLAYORDER=
